# Blender 3.6.5
# www.blender.org
mtllib PaintingTable.mtl
o Table
v -0.500000 0.900000 1.000000
v -0.500000 1.000000 1.000000
v -0.500000 0.900000 -1.000000
v -0.500000 1.000000 -1.000000
v 0.500000 0.900000 1.000000
v 0.500000 1.000000 1.000000
v 0.500000 0.900000 -1.000000
v 0.500000 1.000000 -1.000000
v -0.500000 0.900000 0.900000
v -0.500000 1.000000 0.900000
v 0.500000 0.900000 0.900000
v 0.500000 1.000000 0.900000
v -0.500000 1.000000 -0.900000
v 0.500000 0.900000 -0.900000
v -0.500000 0.900000 -0.900000
v 0.500000 1.000000 -0.900000
v -0.400000 0.900000 -1.000000
v -0.400000 1.000000 -1.000000
v -0.400000 0.900000 1.000000
v -0.400000 1.000000 1.000000
v -0.400000 1.000000 0.900000
v -0.400000 0.900000 0.900000
v -0.400000 0.900000 -0.900000
v -0.400000 1.000000 -0.900000
v 0.400000 1.000000 -1.000000
v 0.400000 0.900000 1.000000
v 0.400000 1.000000 0.900000
v 0.400000 1.000000 -0.900000
v 0.400000 0.900000 -1.000000
v 0.400000 1.000000 1.000000
v 0.400000 0.900000 0.900000
v 0.400000 0.900000 -0.900000
v -0.500000 -0.000000 0.900000
v -0.500000 -0.000000 1.000000
v -0.400000 -0.000000 -1.000000
v -0.500000 -0.000000 -1.000000
v 0.500000 -0.000000 -0.900000
v 0.500000 -0.000000 -1.000000
v 0.400000 -0.000000 1.000000
v 0.500000 -0.000000 1.000000
v 0.500000 -0.000000 0.900000
v -0.400000 -0.000000 0.900000
v -0.500000 -0.000000 -0.900000
v -0.400000 -0.000000 -0.900000
v -0.400000 -0.000000 1.000000
v 0.400000 -0.000000 -1.000000
v 0.400000 -0.000000 0.900000
v 0.400000 -0.000000 -0.900000
vn -1.0000 -0.0000 -0.0000
vn -0.0000 -0.0000 -1.0000
vn 1.0000 -0.0000 -0.0000
vn -0.0000 -0.0000 1.0000
vn -0.0000 1.0000 -0.0000
vn -0.0000 -1.0000 -0.0000
vt 0.375000 0.187500
vt 0.625000 0.187500
vt 0.625000 0.250000
vt 0.375000 0.250000
vt 0.375000 0.437500
vt 0.625000 0.437500
vt 0.625000 0.500000
vt 0.375000 0.500000
vt 0.375000 0.625000
vt 0.625000 0.625000
vt 0.625000 0.750000
vt 0.375000 0.750000
vt 0.375000 0.875000
vt 0.625000 0.875000
vt 0.625000 1.000000
vt 0.375000 1.000000
vt 0.750000 0.625000
vt 0.875000 0.625000
vt 0.875000 0.750000
vt 0.750000 0.750000
vt 0.750000 0.562500
vt 0.875000 0.562500
vt 0.312500 0.562500
vt 0.375000 0.562500
vt 0.312500 0.625000
vt 0.625000 0.562500
vt 0.375000 0.000000
vt 0.625000 0.000000
vt 0.625000 0.125000
vt 0.375000 0.125000
vt 0.250000 0.562500
vt 0.125000 0.562500
vt 0.750000 0.500000
vt 0.875000 0.500000
vt 0.687500 0.500000
vt 0.687500 0.562500
vt 0.375000 0.812500
vt 0.250000 0.625000
vt 0.125000 0.625000
vt 0.687500 0.625000
vt 0.687500 0.750000
vt 0.625000 0.812500
vt 0.625000 0.375000
vt 0.375000 0.375000
vt 0.250000 0.500000
vt 0.312500 0.500000
vt 0.312500 0.750000
vt 0.250000 0.750000
vt 0.125000 0.500000
vt 0.125000 0.750000
s 0
usemtl Table
f 15/1/1 13/2/1 4/3/1 3/4/1
f 29/5/2 25/6/2 8/7/2 7/8/2
f 11/9/3 12/10/3 6/11/3 5/12/3
f 19/13/4 20/14/4 2/15/4 1/16/4
f 29/5/2 7/8/2 38/8/2 46/5/2
f 21/17/5 10/18/5 2/19/5 20/20/5
f 24/21/5 13/22/5 10/18/5 21/17/5
f 32/23/6 14/24/6 11/9/6 31/25/6
f 14/24/3 16/26/3 12/10/3 11/9/3
f 1/27/1 2/28/1 10/29/1 9/30/1
f 7/8/3 8/7/3 16/26/3 14/24/3
f 23/31/4 15/32/4 43/32/4 44/31/4
f 18/33/5 4/34/5 13/22/5 24/21/5
f 9/30/1 10/29/1 13/2/1 15/1/1
f 25/35/5 18/33/5 24/21/5 28/36/5
f 5/12/4 26/37/4 39/37/4 40/12/4
f 15/32/6 23/31/6 22/38/6 9/39/6
f 28/36/5 24/21/5 21/17/5 27/40/5
f 27/40/5 21/17/5 20/20/5 30/41/5
f 9/39/2 22/38/2 42/38/2 33/39/2
f 26/37/4 30/42/4 20/14/4 19/13/4
f 3/4/2 4/3/2 18/43/2 17/44/2
f 5/12/4 6/11/4 30/42/4 26/37/4
f 12/10/5 27/40/5 30/41/5 6/11/5
f 16/26/5 28/36/5 27/40/5 12/10/5
f 8/7/5 25/35/5 28/36/5 16/26/5
f 17/45/6 29/46/6 32/23/6 23/31/6
f 23/31/6 32/23/6 31/25/6 22/38/6
f 22/38/6 31/25/6 26/47/6 19/48/6
f 17/44/2 18/43/2 25/6/2 29/5/2
f 47/25/6 41/9/6 40/12/6 39/47/6
f 46/46/6 38/8/6 37/24/6 48/23/6
f 36/49/6 35/45/6 44/31/6 43/32/6
f 33/39/6 42/38/6 45/48/6 34/50/6
f 22/38/3 19/48/3 45/48/3 42/38/3
f 3/4/2 17/44/2 35/44/2 36/4/2
f 32/23/1 29/46/1 46/46/1 48/23/1
f 31/25/2 11/9/2 41/9/2 47/25/2
f 26/47/1 31/25/1 47/25/1 39/47/1
f 14/24/4 32/23/4 48/23/4 37/24/4
f 11/9/3 5/12/3 40/12/3 41/9/3
f 7/8/3 14/24/3 37/24/3 38/8/3
f 15/1/1 3/4/1 36/4/1 43/1/1
f 1/27/1 9/30/1 33/30/1 34/27/1
f 17/45/3 23/31/3 44/31/3 35/45/3
f 19/13/4 1/16/4 34/16/4 45/13/4
o Chair
v 0.550000 0.566667 -0.250000
v 0.550000 0.616667 -0.250000
v 0.550000 0.566667 -0.750000
v 0.550000 0.616667 -0.750000
v 1.050000 0.566667 -0.250000
v 1.050000 0.616667 -0.250000
v 1.050000 0.566667 -0.750000
v 1.050000 0.616667 -0.750000
v 0.550000 0.566667 -0.300000
v 0.550000 0.616667 -0.300000
v 1.050000 0.566667 -0.300000
v 1.050000 0.616667 -0.300000
v 0.550000 0.616667 -0.700000
v 1.050000 0.566667 -0.700000
v 0.550000 0.566667 -0.700000
v 1.050000 0.616667 -0.700000
v 0.600000 0.566667 -0.750000
v 0.600000 0.616667 -0.750000
v 0.600000 0.566667 -0.250000
v 0.600000 0.616667 -0.250000
v 0.600000 0.616667 -0.300000
v 0.600000 0.566667 -0.300000
v 0.600000 0.566667 -0.700000
v 0.600000 0.616667 -0.700000
v 1.000000 0.616667 -0.750000
v 1.000000 0.566667 -0.250000
v 1.000000 0.616667 -0.300000
v 1.000000 0.616667 -0.700000
v 1.000000 0.566667 -0.750000
v 1.000000 0.616667 -0.250000
v 1.000000 0.566667 -0.300000
v 1.000000 0.566667 -0.700000
v 0.550000 -0.003333 -0.300000
v 0.550000 -0.003333 -0.250000
v 0.600000 -0.003333 -0.750000
v 0.550000 -0.003333 -0.750000
v 1.050000 -0.003333 -0.700000
v 1.050000 -0.003333 -0.750000
v 1.000000 -0.003333 -0.250000
v 1.050000 -0.003333 -0.250000
v 1.050000 -0.003333 -0.300000
v 0.600000 -0.003333 -0.300000
v 0.550000 -0.003333 -0.700000
v 0.600000 -0.003333 -0.700000
v 0.600000 -0.003333 -0.250000
v 1.000000 -0.003333 -0.750000
v 1.000000 -0.003333 -0.300000
v 1.000000 -0.003333 -0.700000
v 1.000000 1.216667 -0.750000
v 1.050000 1.216667 -0.750000
v 1.050000 1.216667 -0.300000
v 1.050000 1.216667 -0.250000
v 1.050000 1.216667 -0.700000
v 1.000000 1.216667 -0.300000
v 1.000000 1.216667 -0.700000
v 1.000000 1.216667 -0.250000
vn -1.0000 -0.0000 -0.0000
vn -0.0000 -0.0000 -1.0000
vn 1.0000 -0.0000 -0.0000
vn -0.0000 -0.0000 1.0000
vn -0.0000 1.0000 -0.0000
vn -0.0000 -1.0000 -0.0000
vt 0.375000 0.187500
vt 0.625000 0.187500
vt 0.625000 0.250000
vt 0.375000 0.250000
vt 0.375000 0.437500
vt 0.625000 0.437500
vt 0.625000 0.500000
vt 0.375000 0.500000
vt 0.375000 0.625000
vt 0.625000 0.625000
vt 0.625000 0.750000
vt 0.375000 0.750000
vt 0.375000 0.875000
vt 0.625000 0.875000
vt 0.625000 1.000000
vt 0.375000 1.000000
vt 0.750000 0.625000
vt 0.875000 0.625000
vt 0.875000 0.750000
vt 0.750000 0.750000
vt 0.750000 0.562500
vt 0.875000 0.562500
vt 0.312500 0.562500
vt 0.375000 0.562500
vt 0.312500 0.625000
vt 0.625000 0.562500
vt 0.375000 0.000000
vt 0.625000 0.000000
vt 0.625000 0.125000
vt 0.375000 0.125000
vt 0.250000 0.562500
vt 0.125000 0.562500
vt 0.750000 0.500000
vt 0.875000 0.500000
vt 0.687500 0.500000
vt 0.687500 0.562500
vt 0.375000 0.812500
vt 0.250000 0.625000
vt 0.125000 0.625000
vt 0.687500 0.625000
vt 0.687500 0.750000
vt 0.625000 0.812500
vt 0.625000 0.375000
vt 0.375000 0.375000
vt 0.250000 0.500000
vt 0.312500 0.500000
vt 0.312500 0.750000
vt 0.250000 0.750000
vt 0.125000 0.500000
vt 0.125000 0.750000
s 0
usemtl Chair
f 63/51/7 61/52/7 52/53/7 51/54/7
f 77/55/8 73/56/8 56/57/8 55/58/8
f 59/59/9 60/60/9 54/61/9 53/62/9
f 67/63/10 68/64/10 50/65/10 49/66/10
f 77/55/8 55/58/8 86/58/8 94/55/8
f 69/67/11 58/68/11 50/69/11 68/70/11
f 72/71/11 61/72/11 58/68/11 69/67/11
f 80/73/12 62/74/12 59/59/12 79/75/12
f 62/74/9 64/76/9 60/60/9 59/59/9
f 49/77/7 50/78/7 58/79/7 57/80/7
f 55/58/9 56/57/9 64/76/9 62/74/9
f 71/81/10 63/82/10 91/82/10 92/81/10
f 66/83/11 52/84/11 61/72/11 72/71/11
f 57/80/7 58/79/7 61/52/7 63/51/7
f 73/85/11 66/83/11 72/71/11 76/86/11
f 53/62/10 74/87/10 87/87/10 88/62/10
f 63/82/12 71/81/12 70/88/12 57/89/12
f 76/86/11 72/71/11 69/67/11 75/90/11
f 75/90/11 69/67/11 68/70/11 78/91/11
f 57/89/8 70/88/8 90/88/8 81/89/8
f 74/87/10 78/92/10 68/64/10 67/63/10
f 51/54/8 52/53/8 66/93/8 65/94/8
f 53/62/10 54/61/10 78/92/10 74/87/10
f 54/61/9 60/60/9 99/60/9 100/61/9
f 76/86/7 75/90/7 102/90/7 103/86/7
f 64/76/9 56/57/9 98/57/9 101/76/9
f 65/95/12 77/96/12 80/73/12 71/81/12
f 71/81/12 80/73/12 79/75/12 70/88/12
f 70/88/12 79/75/12 74/97/12 67/98/12
f 65/94/8 66/93/8 73/56/8 77/55/8
f 95/75/12 89/59/12 88/62/12 87/97/12
f 94/96/12 86/58/12 85/74/12 96/73/12
f 84/99/12 83/95/12 92/81/12 91/82/12
f 81/89/12 90/88/12 93/98/12 82/100/12
f 70/88/9 67/98/9 93/98/9 90/88/9
f 51/54/8 65/94/8 83/94/8 84/54/8
f 80/73/7 77/96/7 94/96/7 96/73/7
f 79/75/8 59/59/8 89/59/8 95/75/8
f 74/97/7 79/75/7 95/75/7 87/97/7
f 62/74/10 80/73/10 96/73/10 85/74/10
f 59/59/9 53/62/9 88/62/9 89/59/9
f 55/58/9 62/74/9 85/74/9 86/58/9
f 63/51/7 51/54/7 84/54/7 91/51/7
f 49/77/7 57/80/7 81/80/7 82/77/7
f 65/95/9 71/81/9 92/81/9 83/95/9
f 67/63/10 49/66/10 82/66/10 93/63/10
f 99/60/11 102/90/11 104/91/11 100/61/11
f 101/76/11 103/86/11 102/90/11 99/60/11
f 98/57/11 97/85/11 103/86/11 101/76/11
f 60/60/9 64/76/9 101/76/9 99/60/9
f 73/85/7 76/86/7 103/86/7 97/85/7
f 75/90/7 78/91/7 104/91/7 102/90/7
f 78/92/10 54/61/10 100/61/10 104/92/10
f 56/57/8 73/56/8 97/56/8 98/57/8
o Chair.001
v 0.550000 0.566667 0.650000
v 0.550000 0.616667 0.650000
v 0.550000 0.566667 0.150000
v 0.550000 0.616667 0.150000
v 1.050000 0.566667 0.650000
v 1.050000 0.616667 0.650000
v 1.050000 0.566667 0.150000
v 1.050000 0.616667 0.150000
v 0.550000 0.566667 0.600000
v 0.550000 0.616667 0.600000
v 1.050000 0.566667 0.600000
v 1.050000 0.616667 0.600000
v 0.550000 0.616667 0.200000
v 1.050000 0.566667 0.200000
v 0.550000 0.566667 0.200000
v 1.050000 0.616667 0.200000
v 0.600000 0.566667 0.150000
v 0.600000 0.616667 0.150000
v 0.600000 0.566667 0.650000
v 0.600000 0.616667 0.650000
v 0.600000 0.616667 0.600000
v 0.600000 0.566667 0.600000
v 0.600000 0.566667 0.200000
v 0.600000 0.616667 0.200000
v 1.000000 0.616667 0.150000
v 1.000000 0.566667 0.650000
v 1.000000 0.616667 0.600000
v 1.000000 0.616667 0.200000
v 1.000000 0.566667 0.150000
v 1.000000 0.616667 0.650000
v 1.000000 0.566667 0.600000
v 1.000000 0.566667 0.200000
v 0.550000 -0.003333 0.600000
v 0.550000 -0.003333 0.650000
v 0.600000 -0.003333 0.150000
v 0.550000 -0.003333 0.150000
v 1.050000 -0.003333 0.200000
v 1.050000 -0.003333 0.150000
v 1.000000 -0.003333 0.650000
v 1.050000 -0.003333 0.650000
v 1.050000 -0.003333 0.600000
v 0.600000 -0.003333 0.600000
v 0.550000 -0.003333 0.200000
v 0.600000 -0.003333 0.200000
v 0.600000 -0.003333 0.650000
v 1.000000 -0.003333 0.150000
v 1.000000 -0.003333 0.600000
v 1.000000 -0.003333 0.200000
v 1.000000 1.216667 0.150000
v 1.050000 1.216667 0.150000
v 1.050000 1.216667 0.600000
v 1.050000 1.216667 0.650000
v 1.050000 1.216667 0.200000
v 1.000000 1.216667 0.600000
v 1.000000 1.216667 0.200000
v 1.000000 1.216667 0.650000
vn -1.0000 -0.0000 -0.0000
vn -0.0000 -0.0000 -1.0000
vn 1.0000 -0.0000 -0.0000
vn -0.0000 -0.0000 1.0000
vn -0.0000 1.0000 -0.0000
vn -0.0000 -1.0000 -0.0000
vt 0.375000 0.187500
vt 0.625000 0.187500
vt 0.625000 0.250000
vt 0.375000 0.250000
vt 0.375000 0.437500
vt 0.625000 0.437500
vt 0.625000 0.500000
vt 0.375000 0.500000
vt 0.375000 0.625000
vt 0.625000 0.625000
vt 0.625000 0.750000
vt 0.375000 0.750000
vt 0.375000 0.875000
vt 0.625000 0.875000
vt 0.625000 1.000000
vt 0.375000 1.000000
vt 0.750000 0.625000
vt 0.875000 0.625000
vt 0.875000 0.750000
vt 0.750000 0.750000
vt 0.750000 0.562500
vt 0.875000 0.562500
vt 0.312500 0.562500
vt 0.375000 0.562500
vt 0.312500 0.625000
vt 0.625000 0.562500
vt 0.375000 0.000000
vt 0.625000 0.000000
vt 0.625000 0.125000
vt 0.375000 0.125000
vt 0.250000 0.562500
vt 0.125000 0.562500
vt 0.750000 0.500000
vt 0.875000 0.500000
vt 0.687500 0.500000
vt 0.687500 0.562500
vt 0.375000 0.812500
vt 0.250000 0.625000
vt 0.125000 0.625000
vt 0.687500 0.625000
vt 0.687500 0.750000
vt 0.625000 0.812500
vt 0.625000 0.375000
vt 0.375000 0.375000
vt 0.250000 0.500000
vt 0.312500 0.500000
vt 0.312500 0.750000
vt 0.250000 0.750000
vt 0.125000 0.500000
vt 0.125000 0.750000
s 0
usemtl Chair
f 119/101/13 117/102/13 108/103/13 107/104/13
f 133/105/14 129/106/14 112/107/14 111/108/14
f 115/109/15 116/110/15 110/111/15 109/112/15
f 123/113/16 124/114/16 106/115/16 105/116/16
f 133/105/14 111/108/14 142/108/14 150/105/14
f 125/117/17 114/118/17 106/119/17 124/120/17
f 128/121/17 117/122/17 114/118/17 125/117/17
f 136/123/18 118/124/18 115/109/18 135/125/18
f 118/124/15 120/126/15 116/110/15 115/109/15
f 105/127/13 106/128/13 114/129/13 113/130/13
f 111/108/15 112/107/15 120/126/15 118/124/15
f 127/131/16 119/132/16 147/132/16 148/131/16
f 122/133/17 108/134/17 117/122/17 128/121/17
f 113/130/13 114/129/13 117/102/13 119/101/13
f 129/135/17 122/133/17 128/121/17 132/136/17
f 109/112/16 130/137/16 143/137/16 144/112/16
f 119/132/18 127/131/18 126/138/18 113/139/18
f 132/136/17 128/121/17 125/117/17 131/140/17
f 131/140/17 125/117/17 124/120/17 134/141/17
f 113/139/14 126/138/14 146/138/14 137/139/14
f 130/137/16 134/142/16 124/114/16 123/113/16
f 107/104/14 108/103/14 122/143/14 121/144/14
f 109/112/16 110/111/16 134/142/16 130/137/16
f 110/111/15 116/110/15 155/110/15 156/111/15
f 132/136/13 131/140/13 158/140/13 159/136/13
f 120/126/15 112/107/15 154/107/15 157/126/15
f 121/145/18 133/146/18 136/123/18 127/131/18
f 127/131/18 136/123/18 135/125/18 126/138/18
f 126/138/18 135/125/18 130/147/18 123/148/18
f 121/144/14 122/143/14 129/106/14 133/105/14
f 151/125/18 145/109/18 144/112/18 143/147/18
f 150/146/18 142/108/18 141/124/18 152/123/18
f 140/149/18 139/145/18 148/131/18 147/132/18
f 137/139/18 146/138/18 149/148/18 138/150/18
f 126/138/15 123/148/15 149/148/15 146/138/15
f 107/104/14 121/144/14 139/144/14 140/104/14
f 136/123/13 133/146/13 150/146/13 152/123/13
f 135/125/14 115/109/14 145/109/14 151/125/14
f 130/147/13 135/125/13 151/125/13 143/147/13
f 118/124/16 136/123/16 152/123/16 141/124/16
f 115/109/15 109/112/15 144/112/15 145/109/15
f 111/108/15 118/124/15 141/124/15 142/108/15
f 119/101/13 107/104/13 140/104/13 147/101/13
f 105/127/13 113/130/13 137/130/13 138/127/13
f 121/145/15 127/131/15 148/131/15 139/145/15
f 123/113/16 105/116/16 138/116/16 149/113/16
f 155/110/17 158/140/17 160/141/17 156/111/17
f 157/126/17 159/136/17 158/140/17 155/110/17
f 154/107/17 153/135/17 159/136/17 157/126/17
f 116/110/15 120/126/15 157/126/15 155/110/15
f 129/135/13 132/136/13 159/136/13 153/135/13
f 131/140/13 134/141/13 160/141/13 158/140/13
f 134/142/16 110/111/16 156/111/16 160/142/16
f 112/107/14 129/106/14 153/106/14 154/107/14
o Painting
v 0.356459 1.000000 -0.266380
v 0.185449 1.000000 -0.736226
v 0.074551 1.010000 -0.163774
v -0.096459 1.000000 -0.633620
v 0.270954 1.000000 -0.501303
v -0.010954 1.020000 -0.398697
v 0.031799 1.000000 -0.281235
v 0.313706 1.010000 -0.383841
v 0.228201 1.000000 -0.618765
v -0.053706 1.000000 -0.516158
v 0.215505 1.000000 -0.215077
v 0.044495 1.010000 -0.684923
v 0.130000 1.000000 -0.450000
v 0.172752 1.010000 -0.332538
v 0.087247 1.020000 -0.567462
vn -0.1070 0.9942 -0.0034
vn 0.0449 0.9986 0.0262
vn -0.0000 1.0000 -0.0000
vn 0.0895 0.9946 0.0521
vn 0.0273 0.9968 0.0749
vn -0.0273 0.9968 -0.0749
vn 0.0798 0.9942 -0.0714
vt 0.750000 0.500000
vt 1.000000 0.500000
vt 1.000000 1.000000
vt 0.750000 1.000000
vt 0.250000 0.500000
vt 0.500000 0.500000
vt 0.500000 1.000000
vt 0.250000 1.000000
vt 0.000000 0.500000
vt 0.000000 1.000000
vt 0.500000 0.000000
vt 0.750000 0.000000
vt 0.000000 0.000000
vt 0.250000 0.000000
vt 1.000000 0.000000
s 0
usemtl Painting
f 175/151/19 172/152/19 164/153/19 170/154/19
f 174/155/20 173/156/20 166/157/20 167/158/20
f 171/159/21 174/155/21 167/158/21 163/160/21
f 173/156/21 175/151/21 170/154/21 166/157/21
f 165/161/22 169/162/22 175/151/22 173/156/22
f 161/163/23 168/164/23 174/155/23 171/159/23
f 168/164/24 165/161/24 173/156/24 174/155/24
f 169/162/25 162/165/25 172/152/25 175/151/25
o Painting.001
v -0.142249 1.000000 0.454309
v 0.350155 1.000000 0.541133
v -0.090155 1.010000 0.158867
v 0.402249 1.000000 0.245691
v 0.103953 1.000000 0.497721
v 0.156047 1.020000 0.202279
v 0.032946 1.000000 0.180573
v -0.019148 1.010000 0.476015
v 0.227054 1.000000 0.519427
v 0.279148 1.000000 0.223985
v -0.116202 1.000000 0.306588
v 0.376202 1.010000 0.393412
v 0.130000 1.000000 0.350000
v 0.006899 1.010000 0.328294
v 0.253101 1.020000 0.371706
vn 0.0564 0.9942 -0.0910
vn -0.0451 0.9986 0.0258
vn -0.0000 1.0000 -0.0000
vn -0.0899 0.9946 0.0515
vn -0.0785 0.9968 -0.0138
vn 0.0785 0.9968 0.0138
vn 0.0219 0.9942 0.1048
vt 0.750000 0.500000
vt 1.000000 0.500000
vt 1.000000 1.000000
vt 0.750000 1.000000
vt 0.250000 0.500000
vt 0.500000 0.500000
vt 0.500000 1.000000
vt 0.250000 1.000000
vt 0.000000 0.500000
vt 0.000000 1.000000
vt 0.500000 0.000000
vt 0.750000 0.000000
vt 0.000000 0.000000
vt 0.250000 0.000000
vt 1.000000 0.000000
s 0
usemtl Painting
f 190/166/26 187/167/26 179/168/26 185/169/26
f 189/170/27 188/171/27 181/172/27 182/173/27
f 186/174/28 189/170/28 182/173/28 178/175/28
f 188/171/28 190/166/28 185/169/28 181/172/28
f 180/176/29 184/177/29 190/166/29 188/171/29
f 176/178/30 183/179/30 189/170/30 186/174/30
f 183/179/31 180/176/31 188/171/31 189/170/31
f 184/177/32 177/180/32 187/167/32 190/166/32
