# Blender 3.6.5
# www.blender.org
mtllib PlaingCards.mtl
o Table
v -0.500000 0.900000 0.500000
v -0.500000 1.000000 0.500000
v -0.500000 0.900000 -0.500000
v -0.500000 1.000000 -0.500000
v 0.500000 0.900000 0.500000
v 0.500000 1.000000 0.500000
v 0.500000 0.900000 -0.500000
v 0.500000 1.000000 -0.500000
v -0.000000 0.000000 -0.100000
v -0.000000 0.900000 -0.100000
v 0.070711 0.000000 -0.070711
v 0.070711 0.900000 -0.070711
v 0.100000 0.000000 0.000000
v 0.100000 0.900000 0.000000
v 0.070711 0.000000 0.070711
v 0.070711 0.900000 0.070711
v -0.000000 0.000000 0.100000
v -0.000000 0.900000 0.100000
v -0.070711 0.000000 0.070711
v -0.070711 0.900000 0.070711
v -0.100000 0.000000 0.000000
v -0.100000 0.900000 0.000000
v -0.070711 0.000000 -0.070711
v -0.070711 0.900000 -0.070711
vn -1.0000 -0.0000 -0.0000
vn -0.0000 -0.0000 -1.0000
vn 1.0000 -0.0000 -0.0000
vn -0.0000 -0.0000 1.0000
vn -0.0000 -1.0000 -0.0000
vn -0.0000 1.0000 -0.0000
vn 0.3827 -0.0000 -0.9239
vn 0.9239 -0.0000 -0.3827
vn 0.9239 -0.0000 0.3827
vn 0.3827 -0.0000 0.9239
vn -0.3827 -0.0000 0.9239
vn -0.9239 -0.0000 0.3827
vn -0.9239 -0.0000 -0.3827
vn -0.3827 -0.0000 -0.9239
vt 0.375000 0.000000
vt 0.625000 0.000000
vt 0.625000 0.250000
vt 0.375000 0.250000
vt 0.625000 0.500000
vt 0.375000 0.500000
vt 0.625000 0.750000
vt 0.375000 0.750000
vt 0.625000 1.000000
vt 0.375000 1.000000
vt 0.125000 0.500000
vt 0.125000 0.750000
vt 0.875000 0.500000
vt 0.875000 0.750000
vt 1.000000 0.500000
vt 1.000000 1.000000
vt 0.875000 1.000000
vt 0.750000 1.000000
vt 0.750000 0.500000
vt 0.500000 1.000000
vt 0.500000 0.500000
vt 0.250000 1.000000
vt 0.250000 0.500000
vt 0.419706 0.419706
vt 0.250000 0.490000
vt 0.080294 0.419706
vt 0.010000 0.250000
vt 0.080294 0.080294
vt 0.250000 0.010000
vt 0.419706 0.080294
vt 0.490000 0.250000
vt 0.125000 1.000000
vt 0.000000 1.000000
vt 0.000000 0.500000
vt 0.750000 0.490000
vt 0.919706 0.419706
vt 0.990000 0.250000
vt 0.919706 0.080294
vt 0.750000 0.010000
vt 0.580294 0.080294
vt 0.510000 0.250000
vt 0.580294 0.419706
s 0
usemtl Table
f 1/1/1 2/2/1 4/3/1 3/4/1
f 3/4/2 4/3/2 8/5/2 7/6/2
f 7/6/3 8/5/3 6/7/3 5/8/3
f 5/8/4 6/7/4 2/9/4 1/10/4
f 3/11/5 7/6/5 5/8/5 1/12/5
f 8/5/6 4/13/6 2/14/6 6/7/6
f 9/15/7 10/16/7 12/17/7 11/13/7
f 11/13/8 12/17/8 14/18/8 13/19/8
f 13/19/9 14/18/9 16/9/9 15/5/9
f 15/5/10 16/9/10 18/20/10 17/21/10
f 17/21/11 18/20/11 20/10/11 19/6/11
f 19/6/12 20/10/12 22/22/12 21/23/12
f 12/24/6 10/25/6 24/26/6 22/27/6 20/28/6 18/29/6 16/30/6 14/31/6
f 21/23/13 22/22/13 24/32/13 23/11/13
f 23/11/14 24/32/14 10/33/14 9/34/14
f 9/35/5 11/36/5 13/37/5 15/38/5 17/39/5 19/40/5 21/41/5 23/42/5
o Chair
v 0.600000 0.400000 0.200000
v 0.600000 0.000000 -0.100000
v 0.600000 0.400000 -0.100000
v 0.900000 0.000000 -0.100000
v 0.900000 0.400000 -0.100000
v 0.600000 0.000000 -0.200000
v 0.900000 0.000000 0.200000
v 0.600000 0.400000 -0.200000
v 0.700000 0.000000 -0.100000
v 0.600000 0.500000 0.200000
v 0.700000 0.400000 -0.100000
v 0.900000 0.000000 -0.200000
v 0.700000 0.000000 -0.200000
v 0.900000 0.400000 0.200000
v 0.700000 0.400000 -0.200000
v 0.900000 0.400000 -0.200000
v 0.600000 0.400000 -0.200000
v 1.000000 0.000000 -0.100000
v 1.000000 0.400000 -0.100000
v 0.900000 0.000000 0.100000
v 0.600000 0.500000 -0.200000
v 1.000000 0.000000 -0.200000
v 1.000000 0.400000 -0.200000
v 0.900000 0.400000 0.100000
v 1.000000 0.400000 0.200000
v 1.000000 0.000000 0.200000
v 1.000000 0.500000 0.200000
v 1.000000 0.400000 -0.200000
v 1.000000 0.000000 0.100000
v 1.000000 0.500000 -0.200000
v 1.000000 0.400000 0.100000
v 0.600000 0.000000 0.200000
v 0.600000 0.000000 0.100000
v 0.600000 0.400000 0.100000
v 0.700000 0.000000 0.200000
v 0.700000 0.400000 0.200000
v 0.700000 0.000000 0.100000
v 0.700000 0.400000 0.100000
vn -1.0000 -0.0000 -0.0000
vn -0.0000 -0.0000 -1.0000
vn 1.0000 -0.0000 -0.0000
vn -0.0000 -0.0000 1.0000
vn -0.0000 -1.0000 -0.0000
vn -0.0000 1.0000 -0.0000
vt 0.375000 0.062500
vt 0.375000 0.000000
vt 0.625000 0.000000
vt 0.625000 0.250000
vt 0.375000 0.250000
vt 0.375000 0.187500
vt 0.625000 0.500000
vt 0.375000 0.500000
vt 0.625000 0.750000
vt 0.375000 0.750000
vt 0.375000 0.687500
vt 0.375000 0.562500
vt 0.375000 0.937500
vt 0.375000 0.812500
vt 0.625000 1.000000
vt 0.375000 1.000000
vt 0.125000 0.500000
vt 0.312500 0.500000
vt 0.312500 0.562500
vt 0.312500 0.687500
vt 0.312500 0.750000
vt 0.187500 0.750000
vt 0.187500 0.687500
vt 0.125000 0.687500
vt 0.125000 0.562500
vt 0.187500 0.562500
vt 0.187500 0.500000
vt 0.875000 0.500000
vt 0.875000 0.750000
vt 0.125000 0.750000
s 0
usemtl Chair
f 58/43/15 25/44/15 34/45/15 45/46/15 41/47/15 32/47/15 27/48/15
f 41/47/16 45/46/16 54/49/16 52/50/16
f 51/51/17 49/52/17 55/53/17 43/54/17 47/50/17 52/50/17 54/49/17
f 60/55/18 38/56/18 49/52/18 51/51/18 34/57/18 25/58/18
f 32/59/19 41/59/19 52/50/19 47/50/19 40/60/19 29/61/19 43/54/19 55/53/19 48/62/19 38/63/19 60/64/19 62/65/19 58/66/19 27/67/19 35/68/19 39/69/19
f 54/49/20 45/70/20 34/71/20 51/51/20
usemtl 
f 56/44/15 25/45/15 58/46/15 57/47/15
f 57/47/16 58/46/16 62/49/16 61/50/16
f 61/50/17 62/49/17 60/51/17 59/52/17
f 59/52/18 60/51/18 25/57/18 56/58/18
f 57/59/19 61/50/19 59/52/19 56/72/19
f 31/44/15 38/45/15 48/46/15 44/47/15
f 44/47/16 48/46/16 55/49/16 53/50/16
f 53/50/17 55/49/17 49/51/17 50/52/17
f 50/52/18 49/51/18 38/57/18 31/58/18
f 44/59/19 53/50/19 50/52/19 31/72/19
f 28/44/15 29/45/15 40/46/15 36/47/15
f 36/47/16 40/46/16 47/49/16 46/50/16
f 46/50/17 47/49/17 43/51/17 42/52/17
f 29/57/18 28/58/18 42/52/18 43/51/18
f 36/59/19 46/50/19 42/52/19 28/72/19
f 26/44/15 27/45/15 32/46/15 30/47/15
f 30/47/16 32/46/16 39/49/16 37/50/16
f 35/51/17 33/52/17 37/50/17 39/49/17
f 27/57/18 26/58/18 33/52/18 35/51/18
f 30/59/19 37/50/19 33/52/19 26/72/19
o Chair.001
v 0.200000 0.400000 -0.600000
v -0.100000 0.000000 -0.600000
v -0.100000 0.400000 -0.600000
v -0.100000 0.000000 -0.900000
v -0.100000 0.400000 -0.900000
v -0.200000 0.000000 -0.600000
v 0.200000 0.000000 -0.900000
v -0.200000 0.400000 -0.600000
v -0.100000 0.000000 -0.700000
v 0.200000 0.500000 -0.600000
v -0.100000 0.400000 -0.700000
v -0.200000 0.000000 -0.900000
v -0.200000 0.000000 -0.700000
v 0.200000 0.400000 -0.900000
v -0.200000 0.400000 -0.700000
v -0.200000 0.400000 -0.900000
v -0.200000 0.400000 -0.600000
v -0.100000 0.000000 -1.000000
v -0.100000 0.400000 -1.000000
v 0.100000 0.000000 -0.900000
v -0.200000 0.500000 -0.600000
v -0.200000 0.000000 -1.000000
v -0.200000 0.400000 -1.000000
v 0.100000 0.400000 -0.900000
v 0.200000 0.400000 -1.000000
v 0.200000 0.000000 -1.000000
v 0.200000 0.500000 -1.000000
v -0.200000 0.400000 -1.000000
v 0.100000 0.000000 -1.000000
v -0.200000 0.500000 -1.000000
v 0.100000 0.400000 -1.000000
v 0.200000 0.000000 -0.600000
v 0.100000 0.000000 -0.600000
v 0.100000 0.400000 -0.600000
v 0.200000 0.000000 -0.700000
v 0.200000 0.400000 -0.700000
v 0.100000 0.000000 -0.700000
v 0.100000 0.400000 -0.700000
vn -0.0000 -0.0000 1.0000
vn -1.0000 -0.0000 -0.0000
vn -0.0000 -0.0000 -1.0000
vn 1.0000 -0.0000 -0.0000
vn -0.0000 -1.0000 -0.0000
vn -0.0000 1.0000 -0.0000
vt 0.375000 0.062500
vt 0.375000 0.000000
vt 0.625000 0.000000
vt 0.625000 0.250000
vt 0.375000 0.250000
vt 0.375000 0.187500
vt 0.625000 0.500000
vt 0.375000 0.500000
vt 0.625000 0.750000
vt 0.375000 0.750000
vt 0.375000 0.687500
vt 0.375000 0.562500
vt 0.375000 0.937500
vt 0.375000 0.812500
vt 0.625000 1.000000
vt 0.375000 1.000000
vt 0.125000 0.500000
vt 0.312500 0.500000
vt 0.312500 0.562500
vt 0.312500 0.687500
vt 0.312500 0.750000
vt 0.187500 0.750000
vt 0.187500 0.687500
vt 0.125000 0.687500
vt 0.125000 0.562500
vt 0.187500 0.562500
vt 0.187500 0.500000
vt 0.875000 0.500000
vt 0.875000 0.750000
vt 0.125000 0.750000
s 0
usemtl Chair
f 96/73/21 63/74/21 72/75/21 83/76/21 79/77/21 70/77/21 65/78/21
f 79/77/22 83/76/22 92/79/22 90/80/22
f 89/81/23 87/82/23 93/83/23 81/84/23 85/80/23 90/80/23 92/79/23
f 98/85/24 76/86/24 87/82/24 89/81/24 72/87/24 63/88/24
f 70/89/25 79/89/25 90/80/25 85/80/25 78/90/25 67/91/25 81/84/25 93/83/25 86/92/25 76/93/25 98/94/25 100/95/25 96/96/25 65/97/25 73/98/25 77/99/25
f 92/79/26 83/100/26 72/101/26 89/81/26
usemtl 
f 94/74/21 63/75/21 96/76/21 95/77/21
f 95/77/22 96/76/22 100/79/22 99/80/22
f 99/80/23 100/79/23 98/81/23 97/82/23
f 97/82/24 98/81/24 63/87/24 94/88/24
f 95/89/25 99/80/25 97/82/25 94/102/25
f 69/74/21 76/75/21 86/76/21 82/77/21
f 82/77/22 86/76/22 93/79/22 91/80/22
f 91/80/23 93/79/23 87/81/23 88/82/23
f 88/82/24 87/81/24 76/87/24 69/88/24
f 82/89/25 91/80/25 88/82/25 69/102/25
f 66/74/21 67/75/21 78/76/21 74/77/21
f 74/77/22 78/76/22 85/79/22 84/80/22
f 84/80/23 85/79/23 81/81/23 80/82/23
f 67/87/24 66/88/24 80/82/24 81/81/24
f 74/89/25 84/80/25 80/82/25 66/102/25
f 64/74/21 65/75/21 70/76/21 68/77/21
f 68/77/22 70/76/22 77/79/22 75/80/22
f 73/81/23 71/82/23 75/80/23 77/79/23
f 65/87/24 64/88/24 71/82/24 73/81/24
f 68/89/25 75/80/25 71/82/25 64/102/25
o Chair.002
v -0.600000 0.400000 -0.200000
v -0.600000 0.000000 0.100000
v -0.600000 0.400000 0.100000
v -0.900000 0.000000 0.100000
v -0.900000 0.400000 0.100000
v -0.600000 0.000000 0.200000
v -0.900000 0.000000 -0.200000
v -0.600000 0.400000 0.200000
v -0.700000 0.000000 0.100000
v -0.600000 0.500000 -0.200000
v -0.700000 0.400000 0.100000
v -0.900000 0.000000 0.200000
v -0.700000 0.000000 0.200000
v -0.900000 0.400000 -0.200000
v -0.700000 0.400000 0.200000
v -0.900000 0.400000 0.200000
v -0.600000 0.400000 0.200000
v -1.000000 0.000000 0.100000
v -1.000000 0.400000 0.100000
v -0.900000 0.000000 -0.100000
v -0.600000 0.500000 0.200000
v -1.000000 0.000000 0.200000
v -1.000000 0.400000 0.200000
v -0.900000 0.400000 -0.100000
v -1.000000 0.400000 -0.200000
v -1.000000 0.000000 -0.200000
v -1.000000 0.500000 -0.200000
v -1.000000 0.400000 0.200000
v -1.000000 0.000000 -0.100000
v -1.000000 0.500000 0.200000
v -1.000000 0.400000 -0.100000
v -0.600000 0.000000 -0.200000
v -0.600000 0.000000 -0.100000
v -0.600000 0.400000 -0.100000
v -0.700000 0.000000 -0.200000
v -0.700000 0.400000 -0.200000
v -0.700000 0.000000 -0.100000
v -0.700000 0.400000 -0.100000
vn 1.0000 -0.0000 -0.0000
vn -0.0000 -0.0000 1.0000
vn -1.0000 -0.0000 -0.0000
vn -0.0000 -0.0000 -1.0000
vn -0.0000 -1.0000 -0.0000
vn -0.0000 1.0000 -0.0000
vt 0.375000 0.062500
vt 0.375000 0.000000
vt 0.625000 0.000000
vt 0.625000 0.250000
vt 0.375000 0.250000
vt 0.375000 0.187500
vt 0.625000 0.500000
vt 0.375000 0.500000
vt 0.625000 0.750000
vt 0.375000 0.750000
vt 0.375000 0.687500
vt 0.375000 0.562500
vt 0.375000 0.937500
vt 0.375000 0.812500
vt 0.625000 1.000000
vt 0.375000 1.000000
vt 0.125000 0.500000
vt 0.312500 0.500000
vt 0.312500 0.562500
vt 0.312500 0.687500
vt 0.312500 0.750000
vt 0.187500 0.750000
vt 0.187500 0.687500
vt 0.125000 0.687500
vt 0.125000 0.562500
vt 0.187500 0.562500
vt 0.187500 0.500000
vt 0.875000 0.500000
vt 0.875000 0.750000
vt 0.125000 0.750000
s 0
usemtl Chair
f 134/103/27 101/104/27 110/105/27 121/106/27 117/107/27 108/107/27 103/108/27
f 117/107/28 121/106/28 130/109/28 128/110/28
f 127/111/29 125/112/29 131/113/29 119/114/29 123/110/29 128/110/29 130/109/29
f 136/115/30 114/116/30 125/112/30 127/111/30 110/117/30 101/118/30
f 108/119/31 117/119/31 128/110/31 123/110/31 116/120/31 105/121/31 119/114/31 131/113/31 124/122/31 114/123/31 136/124/31 138/125/31 134/126/31 103/127/31 111/128/31 115/129/31
f 130/109/32 121/130/32 110/131/32 127/111/32
usemtl 
f 132/104/27 101/105/27 134/106/27 133/107/27
f 133/107/28 134/106/28 138/109/28 137/110/28
f 137/110/29 138/109/29 136/111/29 135/112/29
f 135/112/30 136/111/30 101/117/30 132/118/30
f 133/119/31 137/110/31 135/112/31 132/132/31
f 107/104/27 114/105/27 124/106/27 120/107/27
f 120/107/28 124/106/28 131/109/28 129/110/28
f 129/110/29 131/109/29 125/111/29 126/112/29
f 126/112/30 125/111/30 114/117/30 107/118/30
f 120/119/31 129/110/31 126/112/31 107/132/31
f 104/104/27 105/105/27 116/106/27 112/107/27
f 112/107/28 116/106/28 123/109/28 122/110/28
f 122/110/29 123/109/29 119/111/29 118/112/29
f 105/117/30 104/118/30 118/112/30 119/111/30
f 112/119/31 122/110/31 118/112/31 104/132/31
f 102/104/27 103/105/27 108/106/27 106/107/27
f 106/107/28 108/106/28 115/109/28 113/110/28
f 111/111/29 109/112/29 113/110/29 115/109/29
f 103/117/30 102/118/30 109/112/30 111/111/30
f 106/119/31 113/110/31 109/112/31 102/132/31
o Chair.003
v -0.200000 0.400000 0.600000
v 0.100000 0.000000 0.600000
v 0.100000 0.400000 0.600000
v 0.100000 0.000000 0.900000
v 0.100000 0.400000 0.900000
v 0.200000 0.000000 0.600000
v -0.200000 0.000000 0.900000
v 0.200000 0.400000 0.600000
v 0.100000 0.000000 0.700000
v -0.200000 0.500000 0.600000
v 0.100000 0.400000 0.700000
v 0.200000 0.000000 0.900000
v 0.200000 0.000000 0.700000
v -0.200000 0.400000 0.900000
v 0.200000 0.400000 0.700000
v 0.200000 0.400000 0.900000
v 0.200000 0.400000 0.600000
v 0.100000 0.000000 1.000000
v 0.100000 0.400000 1.000000
v -0.100000 0.000000 0.900000
v 0.200000 0.500000 0.600000
v 0.200000 0.000000 1.000000
v 0.200000 0.400000 1.000000
v -0.100000 0.400000 0.900000
v -0.200000 0.400000 1.000000
v -0.200000 0.000000 1.000000
v -0.200000 0.500000 1.000000
v 0.200000 0.400000 1.000000
v -0.100000 0.000000 1.000000
v 0.200000 0.500000 1.000000
v -0.100000 0.400000 1.000000
v -0.200000 0.000000 0.600000
v -0.100000 0.000000 0.600000
v -0.100000 0.400000 0.600000
v -0.200000 0.000000 0.700000
v -0.200000 0.400000 0.700000
v -0.100000 0.000000 0.700000
v -0.100000 0.400000 0.700000
vn -0.0000 -0.0000 -1.0000
vn 1.0000 -0.0000 -0.0000
vn -0.0000 -0.0000 1.0000
vn -1.0000 -0.0000 -0.0000
vn -0.0000 -1.0000 -0.0000
vn -0.0000 1.0000 -0.0000
vt 0.375000 0.062500
vt 0.375000 0.000000
vt 0.625000 0.000000
vt 0.625000 0.250000
vt 0.375000 0.250000
vt 0.375000 0.187500
vt 0.625000 0.500000
vt 0.375000 0.500000
vt 0.625000 0.750000
vt 0.375000 0.750000
vt 0.375000 0.687500
vt 0.375000 0.562500
vt 0.375000 0.937500
vt 0.375000 0.812500
vt 0.625000 1.000000
vt 0.375000 1.000000
vt 0.125000 0.500000
vt 0.312500 0.500000
vt 0.312500 0.562500
vt 0.312500 0.687500
vt 0.312500 0.750000
vt 0.187500 0.750000
vt 0.187500 0.687500
vt 0.125000 0.687500
vt 0.125000 0.562500
vt 0.187500 0.562500
vt 0.187500 0.500000
vt 0.875000 0.500000
vt 0.875000 0.750000
vt 0.125000 0.750000
s 0
usemtl Chair
f 172/133/33 139/134/33 148/135/33 159/136/33 155/137/33 146/137/33 141/138/33
f 155/137/34 159/136/34 168/139/34 166/140/34
f 165/141/35 163/142/35 169/143/35 157/144/35 161/140/35 166/140/35 168/139/35
f 174/145/36 152/146/36 163/142/36 165/141/36 148/147/36 139/148/36
f 146/149/37 155/149/37 166/140/37 161/140/37 154/150/37 143/151/37 157/144/37 169/143/37 162/152/37 152/153/37 174/154/37 176/155/37 172/156/37 141/157/37 149/158/37 153/159/37
f 168/139/38 159/160/38 148/161/38 165/141/38
usemtl 
f 170/134/33 139/135/33 172/136/33 171/137/33
f 171/137/34 172/136/34 176/139/34 175/140/34
f 175/140/35 176/139/35 174/141/35 173/142/35
f 173/142/36 174/141/36 139/147/36 170/148/36
f 171/149/37 175/140/37 173/142/37 170/162/37
f 145/134/33 152/135/33 162/136/33 158/137/33
f 158/137/34 162/136/34 169/139/34 167/140/34
f 167/140/35 169/139/35 163/141/35 164/142/35
f 164/142/36 163/141/36 152/147/36 145/148/36
f 158/149/37 167/140/37 164/142/37 145/162/37
f 142/134/33 143/135/33 154/136/33 150/137/33
f 150/137/34 154/136/34 161/139/34 160/140/34
f 160/140/35 161/139/35 157/141/35 156/142/35
f 143/147/36 142/148/36 156/142/36 157/141/36
f 150/149/37 160/140/37 156/142/37 142/162/37
f 140/134/33 141/135/33 146/136/33 144/137/33
f 144/137/34 146/136/34 153/139/34 151/140/34
f 149/141/35 147/142/35 151/140/35 153/139/35
f 141/147/36 140/148/36 147/142/36 149/141/36
f 144/149/37 151/140/37 147/142/37 140/162/37
o Cards.004
v -0.122475 1.040000 0.070711
v -0.108335 1.030000 0.090904
v -0.100000 1.000000 0.100000
v -0.059767 1.020000 0.128171
v -0.081116 1.010000 0.115846
v -0.122475 1.050000 0.070711
v -0.108335 1.040000 0.090904
v -0.100000 1.010000 0.100000
v -0.059767 1.030000 0.128171
v -0.081116 1.020000 0.115846
v -0.083652 1.040000 -0.074178
v -0.111070 1.020000 -0.012783
v -0.100000 1.000000 -0.050000
v -0.107163 1.010000 -0.031876
v -0.095262 1.030000 -0.058525
v -0.083652 1.050000 -0.074178
v -0.107163 1.020000 -0.031876
v -0.100000 1.010000 -0.050000
v -0.111070 1.030000 -0.012783
v -0.095262 1.040000 -0.058525
v -0.008716 1.030000 0.099619
v 0.017365 1.010000 0.098481
v 0.034202 1.020000 0.093969
v -0.025882 1.040000 0.096593
v -0.000000 1.000000 0.100000
v -0.025882 1.050000 0.096593
v 0.034202 1.030000 0.093969
v 0.017365 1.020000 0.098481
v -0.000000 1.010000 0.100000
v -0.008716 1.040000 0.099619
v 0.000000 1.000000 -0.050000
v -0.017101 1.020000 -0.046985
v 0.012941 1.040000 -0.048296
v -0.008682 1.010000 -0.049240
v 0.004358 1.030000 -0.049810
v 0.000000 1.010000 -0.050000
v -0.017101 1.030000 -0.046985
v 0.012941 1.050000 -0.048296
v 0.004358 1.040000 -0.049810
v -0.008682 1.020000 -0.049240
vn -0.9659 -0.0000 -0.2588
vn 0.2588 -0.0000 -0.9659
vn 0.9659 -0.0000 0.2588
vn -0.2588 -0.0000 0.9659
vn -0.0000 -1.0000 -0.0000
vn -0.0000 1.0000 -0.0000
vn -1.0000 -0.0000 -0.0000
vn -0.0000 -0.0000 -1.0000
vn 1.0000 -0.0000 -0.0000
vn -0.0000 -0.0000 1.0000
vn -0.9848 -0.0000 0.1736
vn -0.1736 -0.0000 -0.9848
vn 0.9848 -0.0000 -0.1736
vn 0.1736 -0.0000 0.9848
vn -0.9397 -0.0000 0.3420
vn -0.3420 -0.0000 -0.9397
vn 0.9397 -0.0000 -0.3420
vn 0.3420 -0.0000 0.9397
vn -0.9962 -0.0000 -0.0872
vn 0.0872 -0.0000 -0.9962
vn 0.9962 -0.0000 0.0872
vn -0.0872 -0.0000 0.9962
vt 0.375000 0.000000
vt 0.625000 0.000000
vt 0.625000 0.250000
vt 0.375000 0.250000
vt 0.625000 0.500000
vt 0.375000 0.500000
vt 0.625000 0.750000
vt 0.375000 0.750000
vt 0.625000 1.000000
vt 0.375000 1.000000
vt 0.125000 0.500000
vt 0.125000 0.750000
vt 0.875000 0.500000
vt 0.875000 0.750000
s 0
usemtl Cards
f 177/163/39 182/164/39 192/165/39 187/166/39
f 187/166/40 192/165/40 214/167/40 209/168/40
f 209/168/41 214/167/41 202/169/41 200/170/41
f 200/170/42 202/169/42 182/171/42 177/172/42
f 187/173/43 209/168/43 200/170/43 177/174/43
f 214/167/44 192/175/44 182/176/44 202/169/44
usemtl 
f 179/163/45 184/164/45 194/165/45 189/166/45
f 189/166/46 194/165/46 212/167/46 207/168/46
f 207/168/47 212/167/47 205/169/47 201/170/47
f 201/170/48 205/169/48 184/171/48 179/172/48
f 189/173/43 207/168/43 201/170/43 179/174/43
f 212/167/44 194/175/44 184/176/44 205/169/44
f 181/163/49 186/164/49 193/165/49 190/166/49
f 190/166/50 193/165/50 216/167/50 210/168/50
f 210/168/51 216/167/51 204/169/51 198/170/51
f 198/170/52 204/169/52 186/171/52 181/172/52
f 190/173/43 210/168/43 198/170/43 181/174/43
f 216/167/44 193/175/44 186/176/44 204/169/44
f 180/163/53 185/164/53 195/165/53 188/166/53
f 188/166/54 195/165/54 213/167/54 208/168/54
f 208/168/55 213/167/55 203/169/55 199/170/55
f 199/170/56 203/169/56 185/171/56 180/172/56
f 188/173/43 208/168/43 199/170/43 180/174/43
f 213/167/44 195/175/44 185/176/44 203/169/44
f 178/163/57 183/164/57 196/165/57 191/166/57
f 191/166/58 196/165/58 215/167/58 211/168/58
f 211/168/59 215/167/59 206/169/59 197/170/59
f 197/170/60 206/169/60 183/171/60 178/172/60
f 191/173/43 211/168/43 197/170/43 178/174/43
f 215/167/44 196/175/44 183/176/44 206/169/44
