# Blender 3.6.5
# www.blender.org
mtllib DoorWall1.mtl
o Bottom_Cube.003
v -0.500000 0.050000 0.400000
v -0.500000 0.050000 0.500000
v -0.500000 0.100000 0.500000
v -0.500000 0.050000 -0.400000
v -0.500000 0.100000 -0.500000
v -0.500000 0.050000 -0.500000
v -0.300000 0.050000 0.500000
v -0.300000 0.050000 -0.500000
v -0.350000 0.100000 -0.500000
v -0.350000 0.100000 0.500000
v -0.300000 0.050000 -0.400000
v -0.300000 0.050000 0.400000
v -0.350000 0.100000 -0.400000
v -0.350000 0.100000 0.400000
v -0.500000 0.100000 -0.400000
v -0.500000 0.100000 0.400000
vn -0.0885 0.7483 -0.6575
vn -0.5774 0.5774 -0.5774
vn -0.5774 0.5774 0.5774
vn 0.5917 0.4665 0.6575
vn -0.5774 -0.5774 -0.5774
vn -0.6841 0.2533 0.6841
vn -0.6992 -0.3613 -0.6169
vn -0.1059 0.6950 0.7112
vn 0.2971 0.7173 -0.6303
vn -0.1059 0.6950 -0.7112
vn -0.6255 0.4663 -0.6255
vn -0.5774 -0.5774 0.5774
vn 0.2971 0.7173 0.6303
vn 0.7735 -0.3204 0.5469
vt 0.500000 0.725000
vt 0.000000 0.000000
vt 0.500000 0.000000
vt 0.500000 0.750000
vt 0.125000 0.750000
vt 0.375000 0.725000
vt 0.375000 0.750000
vt 0.500000 0.500000
vt 0.375000 0.500000
vt 0.125000 0.500000
s 1
usemtl Material.002
f 14/1/1 16/2/2 3/3/3 10/4/4
f 3/3/3 16/2/2 1/2/5 2/5/6
f 16/2/2 14/1/1 12/6/7 1/2/5
f 10/4/4 7/7/8 12/6/7 14/1/1
f 7/7/8 10/4/4 3/3/3 2/5/6
f 5/2/2 9/8/9 8/9/10 6/10/11
f 5/2/2 6/10/11 4/2/12 15/2/3
f 7/7/8 2/5/6 1/2/5 12/6/7
f 13/2/13 11/2/14 8/9/10 9/8/9
f 13/2/13 9/8/9 5/2/2 15/2/3
f 13/2/13 15/2/3 4/2/12 11/2/14
f 8/9/10 11/2/14 4/2/12 6/10/11
o Middle_Cube.002
v -0.500000 0.100000 0.500000
v -0.500000 0.200000 0.500000
v -0.500000 0.200000 -0.500000
v -0.500000 0.100000 -0.500000
v -0.350000 0.100000 -0.500000
v -0.350000 0.200000 -0.500000
v -0.350000 0.200000 0.500000
v -0.350000 0.100000 0.500000
v -0.350000 0.200000 -0.400000
v -0.350000 0.200000 0.400000
v -0.350000 0.100000 -0.400000
v -0.350000 0.100000 0.400000
v -0.500000 0.200000 -0.400000
v -0.500000 0.100000 -0.400000
v -0.500000 0.100000 0.400000
v -0.500000 0.200000 0.400000
vn -0.5774 0.5774 0.5774
vn -0.5774 0.5774 -0.5774
vn -0.5774 -0.5774 -0.5774
vn -0.5774 -0.5774 0.5774
vn -0.0000 -0.7071 -0.7071
vn -0.0000 0.7071 -0.7071
vn 0.5774 0.5774 -0.5774
vn 0.5774 -0.5774 -0.5774
vn 0.5774 -0.5774 0.5774
vn 1.0000 -0.0000 -0.0000
vn 0.5774 0.5774 0.5774
vn 0.7071 -0.7071 -0.0000
vn -0.0000 -1.0000 -0.0000
vn -0.0000 1.0000 -0.0000
vn -1.0000 -0.0000 -0.0000
vn -0.0000 -0.0000 1.0000
vt 0.562500 0.225000
vt 0.562500 0.250000
vt 0.500000 0.250000
vt 0.500000 0.225000
vt 0.000000 0.000000
vt 0.562500 0.725000
vt 0.500000 0.725000
vt 0.500000 0.525000
vt 0.500000 0.500000
vt 0.562500 0.500000
vt 0.562500 0.525000
vt 0.562500 0.750000
vt 0.500000 0.750000
s 1
usemtl Middle.001
f 29/11/15 19/12/16 20/13/17 30/14/18
f 31/15/19 32/15/20 26/16/21 28/17/22
f 27/18/23 21/19/22 22/20/24 25/21/25
f 26/16/21 23/22/24 24/23/26 28/17/22
f 25/21/25 22/20/20 19/12/16 29/11/15
f 28/17/22 24/23/26 17/15/27 31/15/19
f 26/16/21 32/15/20 18/15/28 23/22/28
s 0
f 18/15/29 32/15/29 31/15/29 17/15/29
f 17/15/30 24/23/30 23/22/30 18/15/30
s 1
f 20/13/17 21/19/22 27/18/23 30/14/18
f 19/12/16 22/20/20 21/19/22 20/13/17
f 27/18/23 25/21/25 29/11/15 30/14/18
o Top_Cube.001
v -0.500000 0.200000 0.500000
v -0.500000 2.000000 0.500000
v -0.500000 1.800000 0.400000
v -0.500000 2.000000 -0.500000
v -0.500000 0.200000 -0.500000
v -0.500000 1.800000 -0.400000
v -0.400000 2.000000 -0.500000
v -0.400000 0.200000 -0.500000
v -0.400000 2.000000 0.500000
v -0.400000 0.200000 0.500000
v -0.400000 1.800000 -0.400000
v -0.400000 1.800000 0.400000
v -0.400000 0.200000 -0.400000
v -0.400000 0.200000 0.400000
v -0.500000 0.200000 -0.400000
v -0.500000 0.200000 0.400000
vn -0.5774 -0.5774 0.5774
vn -1.0000 -0.0000 -0.0000
vn -0.7071 -0.0000 0.7071
vn -0.5774 -0.5774 -0.5774
vn 0.5774 -0.5774 -0.5774
vn 0.5774 -0.5774 0.5774
vn -0.0000 -0.0000 -1.0000
vn 0.7071 -0.0000 0.7071
vn 1.0000 -0.0000 -0.0000
vn -0.0000 -0.0000 1.0000
vn -0.0000 1.0000 -0.0000
vt 0.562500 0.000000
vt 0.625000 0.000000
vt 0.625000 0.250000
vt 0.562500 0.250000
vt 0.562500 0.225000
vt 0.618056 0.225000
vt 0.618056 0.025000
vt 0.562500 0.025000
vt 0.562500 0.725000
vt 0.562500 0.750000
vt 0.625000 0.500000
vt 0.562500 0.500000
vt 0.562500 0.525000
vt 0.625000 0.750000
vt 0.618056 0.725000
vt 0.618056 0.525000
vt 0.625000 1.000000
vt 0.562500 1.000000
vt 0.875000 0.500000
vt 0.875000 0.750000
s 1
usemtl Top.001
f 33/24/31 34/25/32 36/26/32 37/27/32 47/28/33 38/29/31 35/30/34 48/31/34
f 46/32/35 42/33/36 33/24/31 48/31/34
f 37/27/37 36/26/37 39/34/37 40/35/37
f 45/36/38 40/35/39 39/34/39 41/37/39 42/33/36 46/32/35 44/38/35 43/39/36
f 42/33/36 41/37/40 34/40/40 33/41/31
f 39/34/41 36/42/41 34/43/41 41/37/41
f 46/32/35 48/31/34 35/30/34 44/38/35
f 45/36/38 43/39/36 38/29/31 47/28/33
f 35/30/34 38/29/31 43/39/36 44/38/35
o DoorFrame
v -0.530000 0.050000 0.400000
v -0.530000 1.800000 0.400000
v -0.530000 0.050000 -0.400000
v -0.530000 1.800000 -0.400000
v -0.370000 0.050000 0.400000
v -0.370000 1.800000 0.400000
v -0.370000 0.050000 -0.400000
v -0.370000 1.800000 -0.400000
v -0.530000 1.770000 -0.370000
v -0.530000 1.770000 0.370000
v -0.530000 0.050000 0.370000
v -0.530000 0.050000 -0.370000
v -0.370000 1.770000 0.370000
v -0.370000 1.770000 -0.370000
v -0.370000 0.050000 0.370000
v -0.370000 0.050000 -0.370000
vn -1.0000 -0.0000 -0.0000
vn -0.0000 -0.0000 -1.0000
vn 1.0000 -0.0000 -0.0000
vn -0.0000 -0.0000 1.0000
vn -0.0000 -1.0000 -0.0000
vn -0.0000 1.0000 -0.0000
vt 0.375000 0.000000
vt 0.625000 0.000000
vt 0.625000 0.250000
vt 0.375000 0.250000
vt 0.375000 0.240625
vt 0.620714 0.240625
vt 0.620714 0.009375
vt 0.375000 0.009375
vt 0.625000 0.500000
vt 0.375000 0.500000
vt 0.375000 0.509375
vt 0.625000 0.750000
vt 0.375000 0.750000
vt 0.375000 0.740625
vt 0.620714 0.740625
vt 0.620714 0.509375
vt 0.625000 1.000000
vt 0.375000 1.000000
vt 0.125000 0.750000
vt 0.125000 0.740625
vt 0.125000 0.509375
vt 0.125000 0.500000
vt 0.875000 0.500000
vt 0.875000 0.750000
vt 0.625000 0.437500
vt 0.625000 0.294643
vt 0.375000 0.294643
vt 0.375000 0.437500
vt 0.625000 0.955357
vt 0.625000 0.812500
vt 0.375000 0.812500
vt 0.375000 0.955357
vt 0.830357 0.500000
vt 0.687500 0.500000
vt 0.687500 0.750000
vt 0.830357 0.750000
s 0
usemtl Material
f 49/44/42 50/45/42 52/46/42 51/47/42 60/48/42 57/49/42 58/50/42 59/51/42
f 51/47/43 52/46/43 56/52/43 55/53/43
f 64/54/44 55/53/44 56/52/44 54/55/44 53/56/44 63/57/44 61/58/44 62/59/44
f 53/56/45 54/55/45 50/60/45 49/61/45
f 63/57/46 53/56/46 49/62/46 59/63/46
f 60/64/46 51/65/46 55/53/46 64/54/46
f 56/52/47 52/66/47 50/67/47 54/55/47
f 62/68/45 57/69/45 60/70/45 64/71/45
f 58/72/43 61/73/43 63/74/43 59/75/43
f 57/76/46 62/77/46 61/78/46 58/79/46
